<svg width="20" height="20" viewBox="0 0 20 20" fill="none" xmlns="http://www.w3.org/2000/svg">
<path d="M18.8889 0C19.1836 0 19.4662 0.105357 19.6746 0.292893C19.8829 0.48043 20 0.734784 20 1V19C20 19.2652 19.8829 19.5196 19.6746 19.7071C19.4662 19.8946 19.1836 20 18.8889 20H3.33333C3.03865 20 2.75603 19.8946 2.54766 19.7071C2.33929 19.5196 2.22222 19.2652 2.22222 19V17H0V15H2.22222V13H0V11H2.22222V9H0V7H2.22222V5H0V3H2.22222V1C2.22222 0.734784 2.33929 0.48043 2.54766 0.292893C2.75603 0.105357 3.03865 0 3.33333 0H18.8889ZM12.2222 6H10V9H6.66667V11H9.99889L10 14H12.2222L12.2211 11H15.5556V9H12.2222V6Z" fill="white"/>
</svg>
